<mxfile host="app.diagrams.net" modified="2020-08-24T11:50:02.815Z" agent="5.0 (Macintosh; Intel Mac OS X 10_15_3) AppleWebKit/537.36 (KHTML, like Gecko) Chrome/83.0.4103.116 Safari/537.36" etag="b_yydkW01TfFIR539Wnq" version="13.5.5" type="github">
  <diagram name="Page-1" id="e7e014a7-5840-1c2e-5031-d8a46d1fe8dd">
    <mxGraphModel dx="1255" dy="762" grid="1" gridSize="10" guides="1" tooltips="1" connect="1" arrows="1" fold="1" page="1" pageScale="1" pageWidth="1169" pageHeight="826" background="#ffffff" math="0" shadow="0">
      <root>
        <mxCell id="0" />
        <mxCell id="1" parent="0" />
        <mxCell id="2" value="Residents" style="swimlane;whiteSpace=wrap" parent="1" vertex="1">
          <mxGeometry x="19" y="128" width="280" height="632" as="geometry" />
        </mxCell>
        <mxCell id="7" value="Generate&#xa;SuggestionÂ " style="" parent="2" vertex="1">
          <mxGeometry x="55.5" y="72" width="110" height="50" as="geometry" />
        </mxCell>
        <mxCell id="8" value="Viewing the &#xa;Progress" style="" parent="2" vertex="1">
          <mxGeometry x="55.5" y="152" width="110" height="50" as="geometry" />
        </mxCell>
        <mxCell id="9" value="" style="endArrow=open;endFill=1;rounded=0" parent="2" source="7" target="8" edge="1">
          <mxGeometry relative="1" as="geometry" />
        </mxCell>
        <mxCell id="12" value="" style="edgeStyle=elbowEdgeStyle;elbow=horizontal;endArrow=open;endFill=1;rounded=0;exitX=0;exitY=0.5;exitDx=0;exitDy=0;" parent="2" source="-3zHlVYiHUVYz4fFyUJ1-75" target="7" edge="1">
          <mxGeometry width="100" height="100" relative="1" as="geometry">
            <mxPoint x="160" y="290" as="sourcePoint" />
            <mxPoint x="260" y="190" as="targetPoint" />
            <Array as="points">
              <mxPoint x="26" y="222" />
            </Array>
          </mxGeometry>
        </mxCell>
        <mxCell id="34" value="" style="whiteSpace=wrap;strokeColor=#FF0000;fillColor=#FF8000;" parent="2" vertex="1">
          <mxGeometry x="250" y="74.5" width="5" height="45" as="geometry" />
        </mxCell>
        <mxCell id="-3zHlVYiHUVYz4fFyUJ1-50" value="Suggestion Interface" style="text;html=1;strokeColor=none;fillColor=none;align=center;verticalAlign=middle;whiteSpace=wrap;rounded=0;fontColor=#FF8000;" parent="2" vertex="1">
          <mxGeometry x="232.5" y="52" width="40" height="18" as="geometry" />
        </mxCell>
        <mxCell id="-3zHlVYiHUVYz4fFyUJ1-56" value="New &#xa;Suggestion?" style="rhombus;fillColor=#ffffc0;" parent="2" vertex="1">
          <mxGeometry x="70.5" y="222" width="80" height="40" as="geometry" />
        </mxCell>
        <mxCell id="-3zHlVYiHUVYz4fFyUJ1-57" value="Yes" style="endArrow=open;endFill=1;rounded=0;exitX=0;exitY=0.5;exitDx=0;exitDy=0;" parent="2" source="-3zHlVYiHUVYz4fFyUJ1-56" edge="1">
          <mxGeometry relative="1" as="geometry">
            <mxPoint x="120.5" y="132" as="sourcePoint" />
            <mxPoint x="25.5" y="242" as="targetPoint" />
            <Array as="points" />
          </mxGeometry>
        </mxCell>
        <mxCell id="-3zHlVYiHUVYz4fFyUJ1-58" value="" style="endArrow=open;endFill=1;rounded=0;entryX=0.5;entryY=0;entryDx=0;entryDy=0;exitX=0.5;exitY=1;exitDx=0;exitDy=0;" parent="2" source="8" target="-3zHlVYiHUVYz4fFyUJ1-56" edge="1">
          <mxGeometry relative="1" as="geometry">
            <mxPoint x="120.5" y="132" as="sourcePoint" />
            <mxPoint x="120.5" y="162" as="targetPoint" />
          </mxGeometry>
        </mxCell>
        <mxCell id="-3zHlVYiHUVYz4fFyUJ1-62" value="" style="endArrow=open;strokeColor=#FF0000;endFill=1;rounded=0;exitX=1;exitY=0.5;exitDx=0;exitDy=0;entryX=0;entryY=0.5;entryDx=0;entryDy=0;" parent="2" source="7" target="34" edge="1">
          <mxGeometry relative="1" as="geometry">
            <mxPoint x="120.5" y="132" as="sourcePoint" />
            <mxPoint x="228" y="93" as="targetPoint" />
          </mxGeometry>
        </mxCell>
        <mxCell id="-3zHlVYiHUVYz4fFyUJ1-97" value="&lt;font style=&quot;font-size: 7px&quot;&gt;Enter &lt;br style=&quot;font-size: 7px&quot;&gt;suggestion&lt;/font&gt;" style="edgeLabel;html=1;align=center;verticalAlign=middle;resizable=0;points=[];fontSize=7;fontColor=#FF0000;" parent="-3zHlVYiHUVYz4fFyUJ1-62" vertex="1" connectable="0">
          <mxGeometry x="0.2972" y="3" relative="1" as="geometry">
            <mxPoint x="-19.36" y="18" as="offset" />
          </mxGeometry>
        </mxCell>
        <mxCell id="-3zHlVYiHUVYz4fFyUJ1-65" value="" style="whiteSpace=wrap;strokeColor=#FF0000;fillColor=#FF8000;" parent="2" vertex="1">
          <mxGeometry x="250" y="152" width="5" height="45" as="geometry" />
        </mxCell>
        <mxCell id="-3zHlVYiHUVYz4fFyUJ1-66" value="Progress Viewing Interface" style="text;html=1;strokeColor=none;fillColor=none;align=center;verticalAlign=middle;whiteSpace=wrap;rounded=0;fontColor=#FF8000;" parent="2" vertex="1">
          <mxGeometry x="240" y="212" width="40" height="18" as="geometry" />
        </mxCell>
        <mxCell id="-3zHlVYiHUVYz4fFyUJ1-68" value="Recieve &#xa;feedback/&#xa;plan/&#xa;progress" style="endArrow=open;strokeColor=#FF0000;endFill=1;rounded=0;exitX=0;exitY=0.25;exitDx=0;exitDy=0;entryX=1;entryY=0.25;entryDx=0;entryDy=0;fontColor=#FF0000;fontSize=11;" parent="2" source="-3zHlVYiHUVYz4fFyUJ1-65" target="8" edge="1">
          <mxGeometry x="0.1599" y="1" relative="1" as="geometry">
            <mxPoint x="175.5" y="107" as="sourcePoint" />
            <mxPoint x="317.5" y="108.25" as="targetPoint" />
            <mxPoint as="offset" />
          </mxGeometry>
        </mxCell>
        <mxCell id="-3zHlVYiHUVYz4fFyUJ1-74" value="Viewing the &#xa;Result" style="" parent="2" vertex="1">
          <mxGeometry x="55.5" y="292" width="110" height="50" as="geometry" />
        </mxCell>
        <mxCell id="-3zHlVYiHUVYz4fFyUJ1-59" value="" style="endArrow=open;endFill=1;rounded=0;exitX=0.5;exitY=1;exitDx=0;exitDy=0;entryX=0.5;entryY=0;entryDx=0;entryDy=0;" parent="2" source="-3zHlVYiHUVYz4fFyUJ1-56" target="-3zHlVYiHUVYz4fFyUJ1-74" edge="1">
          <mxGeometry relative="1" as="geometry">
            <mxPoint x="125" y="212" as="sourcePoint" />
            <mxPoint x="111" y="292" as="targetPoint" />
          </mxGeometry>
        </mxCell>
        <mxCell id="-3zHlVYiHUVYz4fFyUJ1-60" value="No" style="edgeLabel;html=1;align=center;verticalAlign=middle;resizable=0;points=[];" parent="-3zHlVYiHUVYz4fFyUJ1-59" vertex="1" connectable="0">
          <mxGeometry x="-0.381" y="1" relative="1" as="geometry">
            <mxPoint as="offset" />
          </mxGeometry>
        </mxCell>
        <mxCell id="-3zHlVYiHUVYz4fFyUJ1-75" value="Satisfy?" style="rhombus;fillColor=#ffffc0;" parent="2" vertex="1">
          <mxGeometry x="70.5" y="362" width="80" height="40" as="geometry" />
        </mxCell>
        <mxCell id="-3zHlVYiHUVYz4fFyUJ1-76" value="No" style="endArrow=open;endFill=1;rounded=0;exitX=0;exitY=0.5;exitDx=0;exitDy=0;" parent="2" edge="1">
          <mxGeometry relative="1" as="geometry">
            <mxPoint x="70.5" y="381.9" as="sourcePoint" />
            <mxPoint x="25.5" y="381.9" as="targetPoint" />
            <Array as="points" />
          </mxGeometry>
        </mxCell>
        <mxCell id="-3zHlVYiHUVYz4fFyUJ1-77" value="" style="endArrow=open;endFill=1;rounded=0;entryX=0.5;entryY=0;entryDx=0;entryDy=0;exitX=0.5;exitY=1;exitDx=0;exitDy=0;" parent="2" source="-3zHlVYiHUVYz4fFyUJ1-74" target="-3zHlVYiHUVYz4fFyUJ1-75" edge="1">
          <mxGeometry relative="1" as="geometry">
            <mxPoint x="120.5" y="212" as="sourcePoint" />
            <mxPoint x="120.5" y="232" as="targetPoint" />
          </mxGeometry>
        </mxCell>
        <mxCell id="-3zHlVYiHUVYz4fFyUJ1-126" value="" style="endArrow=open;strokeColor=#FF0000;endFill=1;rounded=0;exitX=0;exitY=0.75;exitDx=0;exitDy=0;entryX=1;entryY=0.5;entryDx=0;entryDy=0;" parent="2" source="-3zHlVYiHUVYz4fFyUJ1-65" target="-3zHlVYiHUVYz4fFyUJ1-74" edge="1">
          <mxGeometry relative="1" as="geometry">
            <mxPoint x="260" y="173.25" as="sourcePoint" />
            <mxPoint x="175.5" y="174.5" as="targetPoint" />
            <Array as="points">
              <mxPoint x="231" y="186" />
              <mxPoint x="231" y="317" />
            </Array>
          </mxGeometry>
        </mxCell>
        <mxCell id="-3zHlVYiHUVYz4fFyUJ1-127" value="Receive&lt;br&gt;Results" style="edgeLabel;html=1;align=center;verticalAlign=middle;resizable=0;points=[];fontSize=9;fontColor=#FF0000;" parent="-3zHlVYiHUVYz4fFyUJ1-126" vertex="1" connectable="0">
          <mxGeometry x="0.2807" relative="1" as="geometry">
            <mxPoint x="1.5" y="-20.33" as="offset" />
          </mxGeometry>
        </mxCell>
        <mxCell id="3" value="Estate Managers" style="swimlane;whiteSpace=wrap" parent="1" vertex="1">
          <mxGeometry x="299" y="128" width="360" height="632" as="geometry">
            <mxRectangle x="400" y="128" width="120" height="23" as="alternateBounds" />
          </mxGeometry>
        </mxCell>
        <mxCell id="15" value="Receive Suggestion" style="" parent="3" vertex="1">
          <mxGeometry x="120" y="162" width="110" height="50" as="geometry" />
        </mxCell>
        <mxCell id="16" value="Feedback" style="" parent="3" vertex="1">
          <mxGeometry x="60" y="302" width="110" height="50" as="geometry" />
        </mxCell>
        <mxCell id="21" value="Implementable ?" style="rhombus;fillColor=#ffffc0;" parent="3" vertex="1">
          <mxGeometry x="135" y="232" width="80" height="40" as="geometry" />
        </mxCell>
        <mxCell id="30" value="Implement Plan" style="" parent="3" vertex="1">
          <mxGeometry x="180" y="482" width="110" height="50" as="geometry" />
        </mxCell>
        <mxCell id="-3zHlVYiHUVYz4fFyUJ1-53" value="" style="whiteSpace=wrap;strokeColor=#FF0000;rotation=90;fillColor=#FF8000;" parent="3" vertex="1">
          <mxGeometry x="172.5" y="97" width="5" height="45" as="geometry" />
        </mxCell>
        <mxCell id="-3zHlVYiHUVYz4fFyUJ1-54" value="Notification Interface" style="text;html=1;strokeColor=none;fillColor=none;align=center;verticalAlign=middle;whiteSpace=wrap;rounded=0;fontColor=#FF8000;" parent="3" vertex="1">
          <mxGeometry x="155" y="72" width="40" height="18" as="geometry" />
        </mxCell>
        <mxCell id="-3zHlVYiHUVYz4fFyUJ1-61" value="Generate a Plan" style="" parent="3" vertex="1">
          <mxGeometry x="180" y="302" width="110" height="50" as="geometry" />
        </mxCell>
        <mxCell id="-3zHlVYiHUVYz4fFyUJ1-87" value="" style="endArrow=open;endFill=1;rounded=0;exitX=1;exitY=0.5;exitDx=0;exitDy=0;entryX=0.5;entryY=0;entryDx=0;entryDy=0;" parent="3" source="-3zHlVYiHUVYz4fFyUJ1-53" target="15" edge="1">
          <mxGeometry relative="1" as="geometry">
            <mxPoint x="-42.5" y="173.2500000000001" as="sourcePoint" />
            <mxPoint x="-104.5" y="174.5000000000001" as="targetPoint" />
          </mxGeometry>
        </mxCell>
        <mxCell id="-3zHlVYiHUVYz4fFyUJ1-88" value="" style="whiteSpace=wrap;strokeColor=#FF0000;rotation=90;fillColor=#FF9933;" parent="3" vertex="1">
          <mxGeometry x="172.5" y="387" width="5" height="45" as="geometry" />
        </mxCell>
        <mxCell id="-3zHlVYiHUVYz4fFyUJ1-92" value="Project Management Interface" style="text;html=1;strokeColor=none;fillColor=none;align=center;verticalAlign=middle;whiteSpace=wrap;rounded=0;labelBackgroundColor=#ffffff;fontColor=#FF8000;" parent="3" vertex="1">
          <mxGeometry x="101" y="432" width="40" height="18" as="geometry" />
        </mxCell>
        <mxCell id="-3zHlVYiHUVYz4fFyUJ1-91" value="" style="endArrow=open;strokeColor=#FF0000;endFill=1;rounded=0;exitX=0.5;exitY=1;exitDx=0;exitDy=0;entryX=0;entryY=0.75;entryDx=0;entryDy=0;" parent="3" source="16" target="-3zHlVYiHUVYz4fFyUJ1-88" edge="1">
          <mxGeometry relative="1" as="geometry">
            <mxPoint x="-104.5" y="107.00000000000011" as="sourcePoint" />
            <mxPoint x="41" y="232" as="targetPoint" />
            <Array as="points">
              <mxPoint x="115" y="362" />
              <mxPoint x="164" y="362" />
            </Array>
          </mxGeometry>
        </mxCell>
        <mxCell id="-3zHlVYiHUVYz4fFyUJ1-95" value="Enter&lt;br&gt;Feedback" style="edgeLabel;html=1;align=center;verticalAlign=middle;resizable=0;points=[];fontColor=#FF0000;" parent="-3zHlVYiHUVYz4fFyUJ1-91" vertex="1" connectable="0">
          <mxGeometry x="-0.0633" y="-2" relative="1" as="geometry">
            <mxPoint x="-13.000000000000002" y="18" as="offset" />
          </mxGeometry>
        </mxCell>
        <mxCell id="-3zHlVYiHUVYz4fFyUJ1-103" value="" style="endArrow=open;endFill=1;rounded=0;entryX=0.5;entryY=0;entryDx=0;entryDy=0;exitX=0.5;exitY=1;exitDx=0;exitDy=0;" parent="3" source="15" target="21" edge="1">
          <mxGeometry relative="1" as="geometry">
            <mxPoint x="-159.5" y="212" as="sourcePoint" />
            <mxPoint x="-159.5" y="232" as="targetPoint" />
          </mxGeometry>
        </mxCell>
        <mxCell id="-3zHlVYiHUVYz4fFyUJ1-104" value="" style="endArrow=open;endFill=1;rounded=0;entryX=0.5;entryY=0;entryDx=0;entryDy=0;exitX=0;exitY=0.5;exitDx=0;exitDy=0;" parent="3" source="21" target="16" edge="1">
          <mxGeometry relative="1" as="geometry">
            <mxPoint x="185" y="222" as="sourcePoint" />
            <mxPoint x="185" y="242" as="targetPoint" />
            <Array as="points">
              <mxPoint x="115" y="252" />
            </Array>
          </mxGeometry>
        </mxCell>
        <mxCell id="-3zHlVYiHUVYz4fFyUJ1-106" value="No" style="edgeLabel;html=1;align=center;verticalAlign=middle;resizable=0;points=[];fontSize=9;" parent="-3zHlVYiHUVYz4fFyUJ1-104" vertex="1" connectable="0">
          <mxGeometry x="-0.4531" y="10" relative="1" as="geometry">
            <mxPoint as="offset" />
          </mxGeometry>
        </mxCell>
        <mxCell id="-3zHlVYiHUVYz4fFyUJ1-105" value="" style="endArrow=open;endFill=1;rounded=0;entryX=0.5;entryY=0;entryDx=0;entryDy=0;exitX=1;exitY=0.5;exitDx=0;exitDy=0;" parent="3" source="21" target="-3zHlVYiHUVYz4fFyUJ1-61" edge="1">
          <mxGeometry relative="1" as="geometry">
            <mxPoint x="145" y="262" as="sourcePoint" />
            <mxPoint x="125" y="312" as="targetPoint" />
            <Array as="points">
              <mxPoint x="235" y="252" />
            </Array>
          </mxGeometry>
        </mxCell>
        <mxCell id="-3zHlVYiHUVYz4fFyUJ1-107" value="Yes" style="edgeLabel;html=1;align=center;verticalAlign=middle;resizable=0;points=[];fontSize=9;" parent="-3zHlVYiHUVYz4fFyUJ1-105" vertex="1" connectable="0">
          <mxGeometry x="0.2027" y="-1" relative="1" as="geometry">
            <mxPoint as="offset" />
          </mxGeometry>
        </mxCell>
        <mxCell id="-3zHlVYiHUVYz4fFyUJ1-108" value="" style="endArrow=open;strokeColor=#FF0000;endFill=1;rounded=0;exitX=0.5;exitY=1;exitDx=0;exitDy=0;entryX=0;entryY=0.25;entryDx=0;entryDy=0;" parent="3" source="-3zHlVYiHUVYz4fFyUJ1-61" target="-3zHlVYiHUVYz4fFyUJ1-88" edge="1">
          <mxGeometry relative="1" as="geometry">
            <mxPoint x="125" y="362" as="sourcePoint" />
            <mxPoint x="173.75" y="417" as="targetPoint" />
            <Array as="points">
              <mxPoint x="235" y="362" />
              <mxPoint x="186" y="362" />
            </Array>
          </mxGeometry>
        </mxCell>
        <mxCell id="-3zHlVYiHUVYz4fFyUJ1-109" value="Describe&lt;br&gt;plan" style="edgeLabel;html=1;align=center;verticalAlign=middle;resizable=0;points=[];fontColor=#FF0000;" parent="-3zHlVYiHUVYz4fFyUJ1-108" vertex="1" connectable="0">
          <mxGeometry x="-0.0633" y="-2" relative="1" as="geometry">
            <mxPoint x="5.000000000000002" y="22" as="offset" />
          </mxGeometry>
        </mxCell>
        <mxCell id="-3zHlVYiHUVYz4fFyUJ1-115" value="" style="endArrow=open;endFill=1;rounded=0;entryX=0.75;entryY=0;entryDx=0;entryDy=0;exitX=0.75;exitY=1;exitDx=0;exitDy=0;" parent="3" source="-3zHlVYiHUVYz4fFyUJ1-61" target="30" edge="1">
          <mxGeometry relative="1" as="geometry">
            <mxPoint x="-159.5" y="212" as="sourcePoint" />
            <mxPoint x="-159.5" y="232" as="targetPoint" />
            <Array as="points">
              <mxPoint x="263" y="432" />
            </Array>
          </mxGeometry>
        </mxCell>
        <mxCell id="-3zHlVYiHUVYz4fFyUJ1-116" value="" style="edgeStyle=none;strokeColor=#FF0000;endArrow=open;endFill=1;rounded=0;exitX=0.5;exitY=0;exitDx=0;exitDy=0;entryX=1;entryY=0.25;entryDx=0;entryDy=0;" parent="3" source="30" target="-3zHlVYiHUVYz4fFyUJ1-88" edge="1">
          <mxGeometry width="100" height="100" relative="1" as="geometry">
            <mxPoint x="340" y="439.5" as="sourcePoint" />
            <mxPoint x="460" y="439.84285714285716" as="targetPoint" />
            <Array as="points">
              <mxPoint x="235" y="432" />
              <mxPoint x="186" y="432" />
            </Array>
          </mxGeometry>
        </mxCell>
        <mxCell id="-3zHlVYiHUVYz4fFyUJ1-117" value="Enter &lt;br&gt;Progress" style="edgeLabel;html=1;align=center;verticalAlign=middle;resizable=0;points=[];fontSize=9;fontColor=#FF0000;" parent="-3zHlVYiHUVYz4fFyUJ1-116" vertex="1" connectable="0">
          <mxGeometry x="-0.3967" y="-2" relative="1" as="geometry">
            <mxPoint x="-22" y="8.86" as="offset" />
          </mxGeometry>
        </mxCell>
        <mxCell id="-3zHlVYiHUVYz4fFyUJ1-121" value="Conclude &amp; &#xa;Reflection" style="" parent="3" vertex="1">
          <mxGeometry x="180" y="562" width="110" height="50" as="geometry" />
        </mxCell>
        <mxCell id="-3zHlVYiHUVYz4fFyUJ1-123" value="" style="endArrow=open;endFill=1;rounded=0;entryX=0.75;entryY=0;entryDx=0;entryDy=0;exitX=0.75;exitY=1;exitDx=0;exitDy=0;" parent="3" source="30" target="-3zHlVYiHUVYz4fFyUJ1-121" edge="1">
          <mxGeometry relative="1" as="geometry">
            <mxPoint x="-159.5" y="352" as="sourcePoint" />
            <mxPoint x="-159.5" y="372" as="targetPoint" />
          </mxGeometry>
        </mxCell>
        <mxCell id="-3zHlVYiHUVYz4fFyUJ1-124" value="" style="edgeStyle=none;strokeColor=#FF0000;endArrow=open;endFill=1;rounded=0;exitX=0;exitY=0.5;exitDx=0;exitDy=0;entryX=1;entryY=0.75;entryDx=0;entryDy=0;" parent="3" source="-3zHlVYiHUVYz4fFyUJ1-121" target="-3zHlVYiHUVYz4fFyUJ1-88" edge="1">
          <mxGeometry width="100" height="100" relative="1" as="geometry">
            <mxPoint x="340" y="439.5" as="sourcePoint" />
            <mxPoint x="460" y="439.84285714285716" as="targetPoint" />
            <Array as="points">
              <mxPoint x="164" y="587" />
            </Array>
          </mxGeometry>
        </mxCell>
        <mxCell id="-3zHlVYiHUVYz4fFyUJ1-125" value="Enter &lt;br&gt;Results" style="edgeLabel;html=1;align=center;verticalAlign=middle;resizable=0;points=[];fontSize=9;fontColor=#FF0000;" parent="-3zHlVYiHUVYz4fFyUJ1-124" vertex="1" connectable="0">
          <mxGeometry x="-0.3729" relative="1" as="geometry">
            <mxPoint x="-12.94" y="19" as="offset" />
          </mxGeometry>
        </mxCell>
        <mxCell id="4" value="Governement" style="swimlane;whiteSpace=wrap" parent="1" vertex="1">
          <mxGeometry x="659" y="128" width="286.9341176470589" height="632" as="geometry" />
        </mxCell>
        <mxCell id="-3zHlVYiHUVYz4fFyUJ1-47" value="Government policy &#xa;to be implemented" style="" parent="4" vertex="1">
          <mxGeometry x="121" y="72" width="110" height="50" as="geometry" />
        </mxCell>
        <mxCell id="-3zHlVYiHUVYz4fFyUJ1-51" value="Suggestion Interface" style="text;html=1;strokeColor=none;fillColor=none;align=center;verticalAlign=middle;whiteSpace=wrap;rounded=0;fontColor=#FF8000;" parent="4" vertex="1">
          <mxGeometry x="10" y="52" width="40" height="20" as="geometry" />
        </mxCell>
        <mxCell id="-3zHlVYiHUVYz4fFyUJ1-55" value="" style="whiteSpace=wrap;strokeColor=#FF0000;fillColor=#FF8000;" parent="4" vertex="1">
          <mxGeometry x="27.5" y="74.5" width="5" height="45" as="geometry" />
        </mxCell>
        <mxCell id="-3zHlVYiHUVYz4fFyUJ1-89" value="" style="whiteSpace=wrap;strokeColor=#FF0000;fillColor=#FF8000;" parent="4" vertex="1">
          <mxGeometry x="27.5" y="152" width="5" height="45" as="geometry" />
        </mxCell>
        <mxCell id="-3zHlVYiHUVYz4fFyUJ1-90" value="Progress Viewing Interface" style="text;html=1;strokeColor=none;fillColor=none;align=center;verticalAlign=middle;whiteSpace=wrap;rounded=0;fontColor=#FF8000;" parent="4" vertex="1">
          <mxGeometry y="212" width="40" height="18" as="geometry" />
        </mxCell>
        <mxCell id="-3zHlVYiHUVYz4fFyUJ1-100" value="" style="endArrow=open;strokeColor=#FF0000;endFill=1;rounded=0;exitX=0;exitY=0.5;exitDx=0;exitDy=0;entryX=1;entryY=0.5;entryDx=0;entryDy=0;" parent="4" source="-3zHlVYiHUVYz4fFyUJ1-47" target="-3zHlVYiHUVYz4fFyUJ1-55" edge="1">
          <mxGeometry relative="1" as="geometry">
            <mxPoint x="-464.5" y="107" as="sourcePoint" />
            <mxPoint x="-380" y="107" as="targetPoint" />
          </mxGeometry>
        </mxCell>
        <mxCell id="-3zHlVYiHUVYz4fFyUJ1-101" value="&lt;font style=&quot;font-size: 8px;&quot;&gt;Enter &lt;br style=&quot;font-size: 8px;&quot;&gt;suggestion&lt;/font&gt;" style="edgeLabel;html=1;align=center;verticalAlign=middle;resizable=0;points=[];fontSize=8;fontColor=#FF0000;" parent="-3zHlVYiHUVYz4fFyUJ1-100" vertex="1" connectable="0">
          <mxGeometry x="0.2972" y="3" relative="1" as="geometry">
            <mxPoint x="12.5" y="12" as="offset" />
          </mxGeometry>
        </mxCell>
        <mxCell id="-3zHlVYiHUVYz4fFyUJ1-133" value="Viewing the &#xa;Progress" style="" parent="4" vertex="1">
          <mxGeometry x="121" y="152" width="110" height="50" as="geometry" />
        </mxCell>
        <mxCell id="-3zHlVYiHUVYz4fFyUJ1-134" value="" style="endArrow=open;endFill=1;rounded=0;exitX=0.5;exitY=1;exitDx=0;exitDy=0;" parent="4" source="-3zHlVYiHUVYz4fFyUJ1-47" target="-3zHlVYiHUVYz4fFyUJ1-133" edge="1">
          <mxGeometry relative="1" as="geometry">
            <mxPoint x="156" y="121.99999999999977" as="sourcePoint" />
          </mxGeometry>
        </mxCell>
        <mxCell id="-3zHlVYiHUVYz4fFyUJ1-135" value="" style="edgeStyle=elbowEdgeStyle;elbow=horizontal;endArrow=open;endFill=1;rounded=0;exitX=0;exitY=0.5;exitDx=0;exitDy=0;entryX=1;entryY=0.5;entryDx=0;entryDy=0;" parent="4" source="-3zHlVYiHUVYz4fFyUJ1-143" target="-3zHlVYiHUVYz4fFyUJ1-47" edge="1">
          <mxGeometry width="100" height="100" relative="1" as="geometry">
            <mxPoint x="226.5" y="232" as="sourcePoint" />
            <mxPoint x="141" y="166.99999999999977" as="targetPoint" />
            <Array as="points">
              <mxPoint x="261" y="312" />
            </Array>
          </mxGeometry>
        </mxCell>
        <mxCell id="-3zHlVYiHUVYz4fFyUJ1-146" value="&lt;font color=&quot;#000000&quot;&gt;No&lt;/font&gt;" style="edgeLabel;html=1;align=center;verticalAlign=middle;resizable=0;points=[];fontSize=11;fontColor=#FF8000;" parent="-3zHlVYiHUVYz4fFyUJ1-135" vertex="1" connectable="0">
          <mxGeometry x="-0.5369" relative="1" as="geometry">
            <mxPoint as="offset" />
          </mxGeometry>
        </mxCell>
        <mxCell id="-3zHlVYiHUVYz4fFyUJ1-136" value="New &#xa;Suggestion?" style="rhombus;fillColor=#ffffc0;" parent="4" vertex="1">
          <mxGeometry x="136" y="222" width="80" height="40" as="geometry" />
        </mxCell>
        <mxCell id="-3zHlVYiHUVYz4fFyUJ1-137" value="Yes" style="endArrow=open;endFill=1;rounded=0;exitX=1;exitY=0.5;exitDx=0;exitDy=0;" parent="4" source="-3zHlVYiHUVYz4fFyUJ1-136" edge="1">
          <mxGeometry relative="1" as="geometry">
            <mxPoint x="211" y="242" as="sourcePoint" />
            <mxPoint x="261" y="242" as="targetPoint" />
            <Array as="points" />
          </mxGeometry>
        </mxCell>
        <mxCell id="-3zHlVYiHUVYz4fFyUJ1-138" value="" style="endArrow=open;endFill=1;rounded=0;entryX=0.5;entryY=0;entryDx=0;entryDy=0;exitX=0.5;exitY=1;exitDx=0;exitDy=0;" parent="4" source="-3zHlVYiHUVYz4fFyUJ1-133" target="-3zHlVYiHUVYz4fFyUJ1-136" edge="1">
          <mxGeometry relative="1" as="geometry">
            <mxPoint x="147" y="4" as="sourcePoint" />
            <mxPoint x="147" y="34" as="targetPoint" />
          </mxGeometry>
        </mxCell>
        <mxCell id="-3zHlVYiHUVYz4fFyUJ1-140" value="Viewing the &#xa;Result" style="" parent="4" vertex="1">
          <mxGeometry x="121" y="292" width="110" height="50" as="geometry" />
        </mxCell>
        <mxCell id="-3zHlVYiHUVYz4fFyUJ1-141" value="" style="endArrow=open;endFill=1;rounded=0;exitX=0.5;exitY=1;exitDx=0;exitDy=0;entryX=0.5;entryY=0;entryDx=0;entryDy=0;" parent="4" source="-3zHlVYiHUVYz4fFyUJ1-136" target="-3zHlVYiHUVYz4fFyUJ1-140" edge="1">
          <mxGeometry relative="1" as="geometry">
            <mxPoint x="151.5" y="84" as="sourcePoint" />
            <mxPoint x="137.5" y="164" as="targetPoint" />
          </mxGeometry>
        </mxCell>
        <mxCell id="-3zHlVYiHUVYz4fFyUJ1-142" value="No" style="edgeLabel;html=1;align=center;verticalAlign=middle;resizable=0;points=[];" parent="-3zHlVYiHUVYz4fFyUJ1-141" vertex="1" connectable="0">
          <mxGeometry x="-0.381" y="1" relative="1" as="geometry">
            <mxPoint as="offset" />
          </mxGeometry>
        </mxCell>
        <mxCell id="-3zHlVYiHUVYz4fFyUJ1-143" value="Satisfy?" style="rhombus;fillColor=#ffffc0;" parent="4" vertex="1">
          <mxGeometry x="136" y="362" width="80" height="40" as="geometry" />
        </mxCell>
        <mxCell id="-3zHlVYiHUVYz4fFyUJ1-145" value="" style="endArrow=open;endFill=1;rounded=0;entryX=0.5;entryY=0;entryDx=0;entryDy=0;exitX=0.5;exitY=1;exitDx=0;exitDy=0;" parent="4" source="-3zHlVYiHUVYz4fFyUJ1-140" target="-3zHlVYiHUVYz4fFyUJ1-143" edge="1">
          <mxGeometry relative="1" as="geometry">
            <mxPoint x="147" y="84" as="sourcePoint" />
            <mxPoint x="147" y="104" as="targetPoint" />
          </mxGeometry>
        </mxCell>
        <mxCell id="-3zHlVYiHUVYz4fFyUJ1-147" value="" style="endArrow=open;strokeColor=#FF0000;endFill=1;rounded=0;exitX=1;exitY=0.25;exitDx=0;exitDy=0;entryX=0;entryY=0.25;entryDx=0;entryDy=0;" parent="4" source="-3zHlVYiHUVYz4fFyUJ1-89" target="-3zHlVYiHUVYz4fFyUJ1-133" edge="1">
          <mxGeometry relative="1" as="geometry">
            <mxPoint x="121" y="107" as="sourcePoint" />
            <mxPoint x="42.5" y="107" as="targetPoint" />
          </mxGeometry>
        </mxCell>
        <mxCell id="-3zHlVYiHUVYz4fFyUJ1-148" value="&lt;span style=&quot;font-size: 11px&quot;&gt;Recieve&amp;nbsp;&lt;/span&gt;&lt;br style=&quot;padding: 0px ; margin: 0px ; font-size: 11px&quot;&gt;&lt;span style=&quot;font-size: 11px&quot;&gt;feedback/&lt;/span&gt;&lt;br style=&quot;padding: 0px ; margin: 0px ; font-size: 11px&quot;&gt;&lt;span style=&quot;font-size: 11px&quot;&gt;plan/&lt;/span&gt;&lt;br style=&quot;padding: 0px ; margin: 0px ; font-size: 11px&quot;&gt;&lt;span style=&quot;font-size: 11px&quot;&gt;progress&lt;/span&gt;" style="edgeLabel;html=1;align=center;verticalAlign=middle;resizable=0;points=[];fontSize=8;fontColor=#FF0000;" parent="-3zHlVYiHUVYz4fFyUJ1-147" vertex="1" connectable="0">
          <mxGeometry x="0.2972" y="3" relative="1" as="geometry">
            <mxPoint x="-12.54" y="13.44" as="offset" />
          </mxGeometry>
        </mxCell>
        <mxCell id="-3zHlVYiHUVYz4fFyUJ1-41" value="Public" style="swimlane;whiteSpace=wrap" parent="1" vertex="1">
          <mxGeometry x="945.93" y="128" width="210" height="632" as="geometry" />
        </mxCell>
        <mxCell id="-3zHlVYiHUVYz4fFyUJ1-42" value="process&#xa;command" style="" parent="-3zHlVYiHUVYz4fFyUJ1-41" vertex="1">
          <mxGeometry x="50" y="222" width="110" height="50" as="geometry" />
        </mxCell>
        <mxCell id="-3zHlVYiHUVYz4fFyUJ1-84" value="" style="endArrow=open;strokeColor=#FF0000;endFill=1;rounded=0;exitX=1;exitY=0.5;exitDx=0;exitDy=0;entryX=0;entryY=0.75;entryDx=0;entryDy=0;" parent="1" source="34" target="-3zHlVYiHUVYz4fFyUJ1-53" edge="1">
          <mxGeometry relative="1" as="geometry">
            <mxPoint x="194.5" y="235" as="sourcePoint" />
            <mxPoint x="256.5" y="235" as="targetPoint" />
            <Array as="points">
              <mxPoint x="463" y="225" />
            </Array>
          </mxGeometry>
        </mxCell>
        <mxCell id="-3zHlVYiHUVYz4fFyUJ1-98" value="Deliver suggestion&lt;br&gt;to manager" style="edgeLabel;html=1;align=center;verticalAlign=middle;resizable=0;points=[];fontSize=9;fontColor=#FF0000;" parent="-3zHlVYiHUVYz4fFyUJ1-84" vertex="1" connectable="0">
          <mxGeometry x="-0.0116" relative="1" as="geometry">
            <mxPoint as="offset" />
          </mxGeometry>
        </mxCell>
        <mxCell id="-3zHlVYiHUVYz4fFyUJ1-85" value="" style="endArrow=open;strokeColor=#FF0000;endFill=1;rounded=0;exitX=0;exitY=0.5;exitDx=0;exitDy=0;entryX=0;entryY=0.25;entryDx=0;entryDy=0;" parent="1" source="-3zHlVYiHUVYz4fFyUJ1-55" target="-3zHlVYiHUVYz4fFyUJ1-53" edge="1">
          <mxGeometry relative="1" as="geometry">
            <mxPoint x="261.5" y="235" as="sourcePoint" />
            <mxPoint x="472.75" y="255" as="targetPoint" />
            <Array as="points">
              <mxPoint x="485" y="223" />
            </Array>
          </mxGeometry>
        </mxCell>
        <mxCell id="-3zHlVYiHUVYz4fFyUJ1-99" value="Deliver suggestion &lt;br&gt;to manager" style="edgeLabel;html=1;align=center;verticalAlign=middle;resizable=0;points=[];fontSize=9;fontColor=#FF0000;" parent="-3zHlVYiHUVYz4fFyUJ1-85" vertex="1" connectable="0">
          <mxGeometry x="0.1227" y="2" relative="1" as="geometry">
            <mxPoint as="offset" />
          </mxGeometry>
        </mxCell>
        <mxCell id="-3zHlVYiHUVYz4fFyUJ1-93" value="" style="endArrow=open;strokeColor=#FF0000;endFill=1;rounded=0;exitX=0;exitY=1;exitDx=0;exitDy=0;entryX=1;entryY=0.25;entryDx=0;entryDy=0;fontSize=7;" parent="1" source="-3zHlVYiHUVYz4fFyUJ1-88" target="-3zHlVYiHUVYz4fFyUJ1-65" edge="1">
          <mxGeometry relative="1" as="geometry">
            <mxPoint x="484" y="260.0000000000001" as="sourcePoint" />
            <mxPoint x="340" y="510" as="targetPoint" />
            <Array as="points">
              <mxPoint x="340" y="535" />
              <mxPoint x="340" y="291" />
            </Array>
          </mxGeometry>
        </mxCell>
        <mxCell id="-3zHlVYiHUVYz4fFyUJ1-96" value="&lt;font style=&quot;font-size: 8px;&quot;&gt;Deliver &lt;br style=&quot;font-size: 8px;&quot;&gt;feedback/plan&lt;br style=&quot;font-size: 8px;&quot;&gt;/progress/results&lt;br style=&quot;font-size: 8px;&quot;&gt;&amp;nbsp;to residents&lt;/font&gt;" style="edgeLabel;html=1;align=center;verticalAlign=middle;resizable=0;points=[];fontColor=#FF0000;fontSize=8;" parent="-3zHlVYiHUVYz4fFyUJ1-93" vertex="1" connectable="0">
          <mxGeometry x="-0.4977" y="-48" relative="1" as="geometry">
            <mxPoint x="13.33" y="-157" as="offset" />
          </mxGeometry>
        </mxCell>
        <mxCell id="-3zHlVYiHUVYz4fFyUJ1-94" value="" style="endArrow=open;strokeColor=#FF0000;endFill=1;rounded=0;exitX=0.25;exitY=0;exitDx=0;exitDy=0;entryX=0;entryY=0.25;entryDx=0;entryDy=0;labelBackgroundColor=#FFFFFF;" parent="1" source="-3zHlVYiHUVYz4fFyUJ1-88" target="-3zHlVYiHUVYz4fFyUJ1-89" edge="1">
          <mxGeometry relative="1" as="geometry">
            <mxPoint x="256.5" y="301.2500000000001" as="sourcePoint" />
            <mxPoint x="194.5" y="302.5000000000001" as="targetPoint" />
            <Array as="points">
              <mxPoint x="620" y="536" />
              <mxPoint x="620" y="291" />
            </Array>
          </mxGeometry>
        </mxCell>
        <mxCell id="-3zHlVYiHUVYz4fFyUJ1-131" value="&lt;span style=&quot;font-size: 8px&quot;&gt;Deliver&amp;nbsp;&lt;/span&gt;&lt;br style=&quot;font-size: 8px&quot;&gt;&lt;span style=&quot;font-size: 8px&quot;&gt;feedback/plan&lt;/span&gt;&lt;br style=&quot;font-size: 8px&quot;&gt;&lt;span style=&quot;font-size: 8px&quot;&gt;/progress/results&lt;/span&gt;&lt;br style=&quot;font-size: 8px&quot;&gt;&lt;span style=&quot;font-size: 8px&quot;&gt;&amp;nbsp;to Governement&lt;/span&gt;" style="edgeLabel;html=1;align=center;verticalAlign=middle;resizable=0;points=[];fontSize=11;fontColor=#FF0000;" parent="-3zHlVYiHUVYz4fFyUJ1-94" vertex="1" connectable="0">
          <mxGeometry x="0.4645" y="3" relative="1" as="geometry">
            <mxPoint x="-17" y="-11.17" as="offset" />
          </mxGeometry>
        </mxCell>
      </root>
    </mxGraphModel>
  </diagram>
</mxfile>
